<?xml version="1.0" encoding="UTF-8"?>
<svg id="Layer_1" data-name="Layer 1" xmlns="http://www.w3.org/2000/svg" viewBox="0 0 722.43 166.73">
  <g>
    <g>
      <path d="m25.9,148.08h18.25l-.93,4.39h-11.13l-.58,2.75h10.25l-.93,4.39h-10.25l-1.39,6.49h-7.12l3.84-18.02Z" style="fill: #fff;"/>
      <path d="m46.98,148.08h19.15l-.93,4.39h-12.04l-.53,2.42h11.18l-.93,4.39h-11.18l-.5,2.42h12.04l-.93,4.39h-19.15l3.84-18.02Z" style="fill: #fff;"/>
      <path d="m69.08,148.08h13.85c6.11,0,8.83,2.37,7.42,9.01-1.34,6.33-5.12,9.01-11.1,9.01h-14.01l3.84-18.02Zm4.24,13.48h4.09c3.26,0,4.92-1.62,5.53-4.47.61-2.85-.35-4.47-3.61-4.47h-4.09l-1.92,8.93Z" style="fill: #fff;"/>
      <path d="m95.24,148.08h19.15l-.93,4.39h-12.04l-.53,2.42h11.18l-.93,4.39h-11.18l-.5,2.42h12.04l-.93,4.39h-19.15l3.84-18.02Z" style="fill: #fff;"/>
      <path d="m117.44,148.08h14.99c2.04,0,3.23.18,4.11.66,1.21.66,1.94,2.4,1.51,4.37-.35,1.69-1.44,3.51-3.63,4.11l-.03.05c1.01.3,1.67,1.21,1.46,2.78l-.53,3.94c-.1.81.1,1.56.43,2.12h-7.77c-.15-.53.03-1.31.35-3.41.2-1.34-.08-2.15-1.39-2.15h-5.05l-1.19,5.55h-7.12l3.84-18.02Zm5.43,7.92h5.05c1.39,0,2.09-.56,2.32-1.69.3-1.36-.5-1.69-1.69-1.69h-4.95l-.73,3.38Z" style="fill: #fff;"/>
      <path d="m149.37,148.08h8.73l3.84,18.02h-7.57l-.33-2.07h-7.42l-1.19,2.07h-7.57l11.51-18.02Zm3.23,5.45h-.05l-3.43,6.11h4.29l-.81-6.11Z" style="fill: #fff;"/>
      <path d="m164.7,162.29l12.87-9.67h-10.07l.96-4.54h19.66l-.83,3.94-12.59,9.54h10.27l-.96,4.54h-20.11l.81-3.81Z" style="fill: #fff;"/>
      <path d="m191.01,148.08h7.12l-3.84,18.02h-7.12l3.84-18.02Z" style="fill: #fff;"/>
      <path d="m212.74,147.45c4.32,0,12.27.3,10.27,9.64-1.99,9.34-10.04,9.64-14.36,9.64s-12.26-.3-10.27-9.64c1.99-9.34,10.04-9.64,14.36-9.64Zm-3.13,14.74c2.9,0,5.05-1.44,5.83-5.1.78-3.66-.76-5.1-3.66-5.1s-5.05,1.44-5.83,5.1c-.78,3.66.76,5.1,3.66,5.1Z" style="fill: #fff;"/>
      <path d="m227.16,148.08h8.13l5.1,9.99h.08l2.12-9.99h6.81l-3.84,18.02h-7.8l-5.43-10.09h-.05l-2.15,10.09h-6.81l3.84-18.02Z" style="fill: #fff;"/>
      <path d="m252.25,148.08h19.15l-.93,4.39h-12.04l-.53,2.42h11.18l-.93,4.39h-11.18l-.5,2.42h12.04l-.93,4.39h-19.15l3.84-18.02Z" style="fill: #fff;"/>
    </g>
    <g>
      <path d="m283.64,148.08h7.12l-3.84,18.02h-7.12l3.84-18.02Z" style="fill: #fff;"/>
      <path d="m299.08,152.63h-6.59l.96-4.54h20.29l-.96,4.54h-6.59l-2.88,13.48h-7.12l2.88-13.48Z" style="fill: #fff;"/>
      <path d="m318.81,148.08h8.73l3.84,18.02h-7.57l-.33-2.07h-7.42l-1.19,2.07h-7.57l11.51-18.02Zm3.23,5.45h-.05l-3.43,6.11h4.29l-.81-6.11Z" style="fill: #fff;"/>
      <path d="m338.12,148.08h7.12l-2.8,13.17h11.03l-1.03,4.85h-18.15l3.84-18.02Z" style="fill: #fff;"/>
      <path d="m359.13,148.08h7.12l-3.84,18.02h-7.12l3.84-18.02Z" style="fill: #fff;"/>
      <path d="m376.91,148.08h8.73l3.84,18.02h-7.57l-.33-2.07h-7.42l-1.19,2.07h-7.57l11.51-18.02Zm3.23,5.45h-.05l-3.43,6.11h4.29l-.81-6.11Z" style="fill: #fff;"/>
      <path d="m396.24,148.08h8.13l5.1,9.99h.08l2.12-9.99h6.81l-3.84,18.02h-7.8l-5.43-10.09h-.05l-2.15,10.09h-6.81l3.84-18.02Z" style="fill: #fff;"/>
      <path d="m428.99,148.08h8.73l3.84,18.02h-7.57l-.33-2.07h-7.42l-1.19,2.07h-7.57l11.51-18.02Zm3.23,5.45h-.05l-3.43,6.11h4.29l-.81-6.11Z" style="fill: #fff;"/>
    </g>
    <g>
      <path d="m456.54,152.63h-6.59l.96-4.54h20.29l-.96,4.54h-6.59l-2.88,13.48h-7.12l2.88-13.48Z" style="fill: #fff;"/>
      <path d="m474.15,148.08h19.15l-.93,4.39h-12.04l-.53,2.42h11.18l-.93,4.39h-11.18l-.5,2.42h12.04l-.93,4.39h-19.15l3.84-18.02Z" style="fill: #fff;"/>
      <path d="m496.23,148.08h8.13l5.1,9.99h.08l2.12-9.99h6.81l-3.84,18.02h-7.8l-5.43-10.09h-.05l-2.15,10.09h-6.81l3.84-18.02Z" style="fill: #fff;"/>
      <path d="m521.4,148.08h8.13l5.1,9.99h.08l2.12-9.99h6.81l-3.84,18.02h-7.8l-5.43-10.09h-.05l-2.15,10.09h-6.81l3.84-18.02Z" style="fill: #fff;"/>
      <path d="m546.53,148.08h7.12l-3.84,18.02h-7.12l3.84-18.02Z" style="fill: #fff;"/>
      <path d="m559.23,158.46c-3.36-.53-4.37-2.55-3.84-5.07.98-4.67,5.83-5.93,11.68-5.93,8.02,0,10.88,2.09,10.32,5.91h-8.28c.18-.73-.18-1.19-.78-1.44-.56-.28-1.34-.38-2.12-.38-2.12,0-2.98.53-3.13,1.29-.1.5.05.83.73.93l8.23,1.26c3.48.53,5.35,2.2,4.69,5.25-.93,4.39-4.95,6.46-12.95,6.46-5.48,0-11.31-.76-10.2-6.06h8.58c-.1.61.03,1.01.48,1.29.48.25,1.24.38,2.35.38,2.22,0,2.95-.61,3.13-1.46.1-.53-.1-1.06-1.03-1.21l-7.87-1.21Z" style="fill: #fff;"/>
      <path d="m608.48,148.08h14.69c5.05,0,6.44,2.27,5.58,6.28-.73,3.46-3.13,6.13-8.18,6.13h-7.62l-1.19,5.6h-7.12l3.84-18.02Zm5.4,8.02h4.59c1.79,0,2.6-.56,2.88-1.87.28-1.36-.28-1.92-2.07-1.92h-4.59l-.81,3.79Z" style="fill: #fff;"/>
      <path d="m636.66,148.08h8.73l3.84,18.02h-7.57l-.33-2.07h-7.42l-1.19,2.07h-7.57l11.51-18.02Zm3.23,5.45h-.05l-3.43,6.11h4.29l-.81-6.11Z" style="fill: #fff;"/>
      <path d="m655.91,148.08h13.85c6.11,0,8.83,2.37,7.42,9.01-1.34,6.33-5.12,9.01-11.1,9.01h-14.01l3.84-18.02Zm4.24,13.48h4.09c3.26,0,4.92-1.62,5.53-4.47.61-2.85-.35-4.47-3.61-4.47h-4.09l-1.92,8.93Z" style="fill: #fff;"/>
      <path d="m682.06,148.08h19.15l-.93,4.39h-12.04l-.53,2.42h11.18l-.93,4.39h-11.18l-.5,2.42h12.04l-.93,4.39h-19.15l3.84-18.02Z" style="fill: #fff;"/>
      <path d="m704.05,148.08h7.12l-2.8,13.17h11.03l-1.03,4.85h-18.15l3.84-18.02Z" style="fill: #fff;"/>
      <path d="m598.56,155.22c-.36-.75-.87-1.38-1.52-1.88-.64-.5-1.43-.87-2.34-1.12-.9-.24-1.9-.36-2.99-.36-1.33,0-2.55.23-3.62.69-1.07.46-1.99,1.08-2.73,1.85-.74.77-1.32,1.67-1.72,2.66-.41,1-.61,2.05-.61,3.12,0,.98.17,1.85.51,2.58.34.74.82,1.37,1.44,1.87.62.5,1.37.88,2.23,1.12.86.24,1.83.36,2.87.36,1.12,0,2.12-.1,2.98-.29.86-.19,1.63-.49,2.28-.88.65-.39,1.22-.88,1.69-1.46.31-.38.59-.83.85-1.3h-5.02c-.1.09-.19.19-.31.27-.23.16-.51.29-.82.4-.31.1-.66.16-1.05.16-1.1,0-1.92-.22-2.43-.67-.51-.44-.76-1-.76-1.71v-.54s0-.02,0-.03h11.35l.03-.16c.16-.74.24-1.45.24-2.11,0-.98-.18-1.85-.54-2.6Zm-10.5,2.17c.13-.26.27-.52.44-.76.21-.32.48-.6.8-.84.32-.24.7-.44,1.14-.58.43-.15.94-.22,1.52-.22s1.06.08,1.41.23c.34.15.61.34.78.59.18.25.3.53.37.83.05.25.09.51.1.77h-6.56Z" style="fill: #fff;"/>
    </g>
  </g>
  <g>
    <g>
      <path d="m57.01,56.4c.23-.25.44-.53.63-.82,6.37-9.93,15.84-18.89,27.69-25.32,29.67-16.08,63.04-10.21,74.53,13.11.25.5.47,1.01.69,1.52,1.95-1.04,3.89-2.13,5.79-3.29h0c.32-.2.64-.4.96-.6-12.82-25.19-48.6-31.72-80.28-14.52-15.02,8.16-26.43,20.19-33,33.31-.04.08,0,.09.06.01.92-1.16,1.9-2.29,2.92-3.42Z" style="fill: #fff;"/>
      <path d="m169.06,52.46c-1.85,1.13-3.71,2.19-5.59,3.2,2.54,21.25-11.8,45.65-36.51,59.04-24.03,13.02-50.48,11.64-65.77-1.75-.5-.44-1.06-.82-1.65-1.14-1.46-.78-2.84-1.64-4.14-2.58-.17-.12-.38.08-.26.25,14.69,21.21,47.87,25.84,77.46,9.77,28-15.2,43.48-43.88,38.34-67.99-.62.4-1.25.79-1.89,1.18Z" style="fill: #fff;"/>
    </g>
    <path d="m85.95,36.4c.02-.13.2-.12.22,0,.35,3.26,1.36,6.34,3.08,9.13,10.75,17.34,44.79,17.36,76.07,0C187.5,33.25,202.3,15.53,205.23.09c.02-.13.21-.12.21.01.57,16.71-15.15,37.75-40.41,51.77-31.27,17.34-65.32,17.33-76.05-.02-2.82-4.52-3.75-9.82-3.02-15.45Z" style="fill: #d21317;"/>
    <path d="m122.93,110.62c-.03.13-.22.1-.22-.03.03-3.28-.59-6.45-1.98-9.41-8.6-18.39-42.39-22.02-75.5-8.11C21.75,102.94,4.95,118.98.21,134.03c-.04.12-.22.09-.21-.04,1.43-16.68,19.52-35.93,46.28-47.17,33.1-13.93,66.9-10.29,75.49,8.11,2.26,4.81,2.55,10.16,1.16,15.69Z" style="fill: #008c3c;"/>
  </g>
  <g>
    <path d="m588.3,31c-4.94-2.68-11.58-3.67-23.02-3.67h-83.9l-21.47,100.85h39.83l5.76-26.96c0-.27.02-.45.02-.45l9.03-42.26h.05l1.25-5.76h27.68c6.64,0,11.16,1.84,9.46,9.47-1.27,6.36-5.23,9.46-12.99,9.46h-9.69c-.26.24-10.03,9.54-17.81,24.61-.16.3-.29.53-.44.82h22.58c7.34,0,8.9,4.52,7.77,12-1.84,11.73-2.83,16.1-1.98,19.07h43.5c-1.83-3.11-2.97-7.34-2.4-11.86l2.97-22.03c1.13-8.76-2.54-13.84-8.19-15.54l.14-.28c12.29-3.39,18.36-13.56,20.34-23.02,2.4-11.02-1.69-20.77-8.47-24.44Z" style="fill: #fff;"/>
    <g>
      <path d="m256.03,68.26l-12.73,59.92h39.83l14.22-66.93c-11.36-.47-26.38,1.37-41.32,7.01Z" style="fill: #fff;"/>
      <polygon points="228.09 27.33 222.46 52.75 336.6 52.75 342.02 27.33 228.09 27.33" style="fill: #fff;"/>
    </g>
    <path d="m429.45,27.33h-78.3l-21.47,100.85h39.83l16.39-75.37h25.71c10.03,0,13.14,3.11,11.58,10.74-1.55,7.34-6.07,10.45-16.1,10.45h-6.82c-6.32,6.52-11.71,13.4-17.81,24.58h36.35c28.25,0,41.67-16.73,45.76-36.08,4.8-22.46-12.78-35.17-35.12-35.17Z" style="fill: #fff;"/>
    <path d="m700.96,27.33h-48.87l-64.41,100.85h42.37l6.52-11.39h-.03l14.27-25.03h0l19.06-33.92h.28l4.52,34.18h-6.86c-10.45,4.59-22.72,19.18-25.94,24.57h36.33l1.83,11.58h42.37l-21.47-100.85Z" style="fill: #fff;"/>
  </g>
</svg>